<svg xmlns="http://www.w3.org/2000/svg" viewBox="0 0 195.59 195.59">
  <defs>
    <style>
      .cls-1 {
        fill: #649d41;
      }

      .cls-2 {
        fill: #fff;
      }
    </style>
  </defs>
  <g id="Coneybeare_Logo" data-name="Coneybeare Logo">
    <g>
      <path class="cls-1" d="M42.38,55.26c-9.16-15.88-1.14-34,15.6-43.65C87.72-5.56,150.41-2.5,180.41,49.47c0,0-19.61-11.78-53.38,7.72-14.16,8.18-28,15.52-41.41,16.87C67,76,50.55,69.4,42.38,55.26Z"/>
      <path class="cls-1" d="M89,166.94c-9.17,15.88-28.86,18-45.6,8.32C13.7,158.09-15,102.26,15,50.3c0,0-.39,22.87,33.39,42.37,14.15,8.17,27.41,16.46,35.31,27.42C94.64,135.29,97.2,152.8,89,166.94Z"/>
      <path class="cls-1" d="M163.3,70.92c18.33,0,30,16,30,35.33,0,34.33-34,87.1-94,87.1,0,0,20-11.1,20-50.1,0-16.34.55-32,6.09-44.29C133.08,81.88,147,70.92,163.3,70.92Z"/>
      <path class="cls-2" d="M45.9,45.15a29.09,29.09,0,0,1,2.7-2.32c.91-.67,2-1.52,3.34-2.35s2.85-1.77,4.55-2.74,3.59-1.89,5.64-2.75l3.16-1.34c1.09-.41,2.22-.8,3.37-1.22l1.73-.62,1.79-.52c1.2-.36,2.41-.72,3.64-1.06,2.47-.63,5-1.17,7.55-1.68s5.11-.86,7.64-1.11c1.27-.13,2.53-.23,3.77-.33s2.47-.23,3.68-.24c2.42-.05,4.76-.06,7-.05s4.31.24,6.23.38l2.76.25c.88.07,1.7.25,2.48.35,1.55.23,2.9.49,4,.69s2,.4,2.56.51l.9.2-.92.15c-.6.07-1.48.22-2.59.33s-2.46.3-4,.42-3.28.37-5.16.58-3.92.39-6.06.65-4.39.58-6.72.84-4.71.73-7.14,1-4.87.84-7.33,1.23c-1.22.21-2.43.49-3.65.73s-2.43.44-3.63.71c-2.36.6-4.75,1-7,1.63-1.13.29-2.24.58-3.33.83l-3.18.89c-1,.26-2,.56-3,.86l-2.81.83c-1.77.61-3.45,1.08-4.89,1.61s-2.73,1-3.77,1.34-1.87.69-2.42.93Z"/>
      <path class="cls-2" d="M25.52,107.64s.73,1,2,2.91c.64.91,1.4,2,2.28,3.3l3,4.22c1.07,1.55,2.29,3.2,3.55,5s2.64,3.54,4,5.44,2.86,3.8,4.42,5.7,3,3.89,4.68,5.76l2.37,2.87c.84.91,1.64,1.85,2.45,2.77l1.2,1.38c.39.46.78.92,1.2,1.35.82.87,1.64,1.73,2.42,2.6s1.55,1.73,2.34,2.52S63,155,63.75,155.76L65.93,158,68,160c1.36,1.33,2.6,2.54,3.69,3.62s2.14,1.94,3,2.7,1.45,1.38,1.89,1.8l.66.66-.85-.37c-.54-.26-1.36-.6-2.37-1.11s-2.25-1.08-3.64-1.82-2.87-1.72-4.51-2.76c-.81-.53-1.66-1.07-2.53-1.66l-2.58-1.95c-.87-.69-1.78-1.39-2.7-2.11s-1.77-1.55-2.69-2.35A72.57,72.57,0,0,1,50,149.5c-.88-.92-1.78-1.84-2.65-2.8s-1.67-2-2.5-2.95-1.67-2-2.44-3-1.52-2.07-2.28-3.09L39,136.11l-1-1.57c-.68-1-1.36-2.07-2-3.09-1.24-2.08-2.43-4.09-3.45-6.06s-2-3.83-2.74-5.61-1.44-3.41-2-4.87-1-2.77-1.32-3.85A35.19,35.19,0,0,1,25.52,107.64Z"/>
      <path class="cls-2" d="M169.85,78.25a34.55,34.55,0,0,1,.45,3.57c.09,1.14.21,2.53.23,4.12s.06,3.39,0,5.35-.25,4.07-.46,6.32-.58,4.58-1,7-.92,4.91-1.61,7.39c-.33,1.25-.65,2.51-1,3.77l-1.2,3.74c-.79,2.5-1.76,4.94-2.74,7.33-.48,1.2-1,2.39-1.54,3.52l-1.64,3.36c-1,2.23-2.32,4.25-3.46,6.19-.59,1-1.13,1.91-1.71,2.79l-1.78,2.5c-1.16,1.59-2.2,3.05-3.23,4.27s-2,2.24-2.74,3.09-1.4,1.48-1.81,1.93l-.66.66.38-.86c.26-.56.61-1.39,1.1-2.4s1.07-2.27,1.79-3.65c.38-.68.67-1.47,1-2.27l1.13-2.51,1.26-2.69,1.23-2.93c.83-2,1.82-4.08,2.62-6.32s1.82-4.45,2.61-6.8,1.74-4.69,2.47-7.1l1.2-3.58c.35-1.21.73-2.4,1.09-3.59.76-2.36,1.36-4.74,2-7l1.76-6.62c.5-2.12,1.05-4.13,1.46-6s.84-3.59,1.19-5.11.63-2.87.87-4C169.59,79.53,169.85,78.25,169.85,78.25Z"/>
    </g>
  </g>
</svg>
